HIERARCHY
ROOT Hips
{
  OFFSET 0 0 0
  CHANNELS 6 Xposition Yposition Zposition Zrotation Yrotation Xrotation
  JOINT LeftThigh
  {
    OFFSET 8.409438 0 -5.917753
    CHANNELS 3 Zrotation Yrotation Xrotation
    JOINT LeftLeg
    {
      OFFSET 0 0 -42.358652
      CHANNELS 3 Zrotation Yrotation Xrotation
      JOINT LeftFoot
      {
        OFFSET 0 0 -39.357303
        CHANNELS 3 Zrotation Yrotation Xrotation
      }
    }
  }
  JOINT RightThigh
  {
    OFFSET -8.409438 0 -5.917753
    CHANNELS 3 Zrotation Yrotation Xrotation
    JOINT RightLeg
    {
      OFFSET 0 0 -42.358652
      CHANNELS 3 Zrotation Yrotation Xrotation
      JOINT RightFoot
      {
        OFFSET 0 0 -39.357303
        CHANNELS 3 Zrotation Yrotation Xrotation
      }
    }
  }
  JOINT SpineLow
  {
    OFFSET 0 0 4.719101
    CHANNELS 3 Zrotation Yrotation Xrotation
    JOINT SpineMid
    {
      OFFSET 0 0 12.899191
      CHANNELS 3 Zrotation Yrotation Xrotation
      JOINT Chest
      {
        OFFSET 0 0 12.899191
        CHANNELS 3 Zrotation Yrotation Xrotation
        JOINT LeftShoulder
        {
          OFFSET 7.550562 1.41573 9.438202
          CHANNELS 3 Zrotation Yrotation Xrotation
          JOINT LeftArm
          {
            OFFSET 9.155056 0 4.247191
            CHANNELS 3 Zrotation Yrotation Xrotation
            JOINT LeftForearm
            {
              OFFSET 0 0 25.771955
              CHANNELS 3 Zrotation Yrotation Xrotation
              JOINT LeftHand
              {
                OFFSET 0 0 25.197169
                CHANNELS 3 Zrotation Yrotation Xrotation
              }
            }
          }
        }
        JOINT RightShoulder
        {
          OFFSET -7.550562 1.41573 9.438202
          CHANNELS 3 Zrotation Yrotation Xrotation
          JOINT RightArm
          {
            OFFSET -9.155056 0 4.247191
            CHANNELS 3 Zrotation Yrotation Xrotation
            JOINT RightForearm
            {
              OFFSET 0 0 -25.771955
              CHANNELS 3 Zrotation Yrotation Xrotation
              JOINT RightHand
              {
                OFFSET 0 0 -25.197169
                CHANNELS 3 Zrotation Yrotation Xrotation
              }
            }
          }
        }
        JOINT Neck
        {
          OFFSET 0 0 15.101124
          CHANNELS 3 Zrotation Yrotation Xrotation
          JOINT Head
          {
            OFFSET 0 0 11.325843
            CHANNELS 3 Zrotation Yrotation Xrotation
            End Site
            {
              OFFSET 0 0 14.157303
            }
          }
        }
      }
    }
  }
}
MOTION
Frames: 5
Frame Time: 0.0
0.0  93.25843  0.0  19.867881  -2.951233  -118.44434  44.76456  -7.326854  -112.284861  7.818555  37.806612  96.920969  0.883353  -2.206431  0.993243  -6.382417  15.876403  14.845756  2.690911  9.572894  12.919749  11.016712  3.046579  3.891418  2.170304  1.223184  1.929394  6.02985  3.164781  5.382518  6.029851  3.164781  5.382518  -16.88821  18.77901  5.977298  170.284911  57.43622  -148.400885  -14.918674  -35.672055  80.614443  2.510019  -70.445165  59.920399  0.11453  -5.973227  23.384461  102.940971  58.658873  29.027994  -44.954023  37.971105  -57.358318  79.981901  -14.944854  -11.671568  0.068848  5.25381  14.827205  -0.07628  3.944774  11.111995  
0.0  93.25843  0.0  20.302261  -3.054441  -118.725192  44.836377  -6.726724  -113.094005  7.312282  38.0321  96.56436  0.545379  -2.176798  0.839736  -5.419017  16.062158  15.565604  2.582838  9.684565  12.856795  10.978666  3.014528  3.942405  2.13623  1.173584  2.02724  5.936685  3.023372  5.64361  5.936685  3.023372  5.64361  -14.800175  19.705824  6.498481  169.313707  52.648366  -151.812304  -13.263954  -33.7236  79.599004  0.127933  -65.627421  69.243496  -0.755093  -5.223707  24.058367  102.370916  54.710167  30.280105  -43.641199  34.668597  -57.535391  80.250528  -14.198816  -12.381752  0.446066  5.737009  14.660647  0.196323  4.316388  10.982079  
0.0  93.25843  0.0  20.526849  -3.143748  -118.94593  44.635877  -6.136453  -113.020781  6.63054  37.731799  94.960057  -0.348443  -2.436026  1.54392  -4.465558  16.033153  16.246196  2.3716  9.776376  12.813212  10.815479  3.003684  3.998507  2.050314  1.10695  2.132326  5.700175  2.839814  5.920916  5.700175  2.839814  5.920915  -12.454596  21.034272  7.264504  169.056725  47.993172  -154.318403  -11.666958  -32.322784  78.020343  0.294681  -60.879258  76.286497  -0.918158  -4.721666  24.724485  100.722566  51.18445  31.554799  -41.259548  31.726822  -57.528923  78.152769  -13.855713  -14.040881  0.888859  6.146765  14.330874  0.521668  4.633917  10.728874  
0.0  93.25843  0.0  20.625444  -3.374949  -119.1492  44.657103  -5.728367  -113.414543  6.164458  37.505499  95.437435  -1.134826  -2.158104  0.905433  -3.585056  15.831737  16.790403  2.12163  9.815238  12.841057  10.703341  3.023344  4.095876  1.861104  1.038494  2.268848  5.182002  2.659283  6.280516  5.182002  2.659283  6.280516  -9.866062  22.702634  7.922479  169.862514  44.177953  -156.187037  -10.424404  -30.431532  76.130529  2.043253  -56.028885  82.156463  -0.264669  -4.368783  25.292263  98.978663  47.912127  33.007317  -38.660094  27.632841  -57.096185  75.889863  -11.351184  -14.266211  1.679027  6.55368  13.685246  1.111186  4.955789  10.234732  
0.0  93.25843  0.0  20.620458  -3.67331  -119.168222  45.039718  -5.232334  -113.417346  7.522744  43.424886  97.593153  4.324193  -2.439295  -0.208061  -3.083175  15.585536  16.938323  2.076537  9.885491  12.975856  11.037977  3.058658  4.330978  1.628511  0.977528  2.393157  4.545087  2.506497  6.606818  4.545087  2.506497  6.606818  -7.602635  24.595398  8.665141  171.480548  41.049807  -157.681724  -9.100735  -28.52767  74.070607  6.157899  -52.678195  86.365002  0.519578  -3.571565  26.226318  98.375688  44.951788  34.314834  -37.183086  22.854015  -56.556597  73.006441  -7.80238  -6.668267  2.51728  6.935243  12.77496  1.740913  5.256787  9.540996  
